<?xml version="1.0" encoding="utf-8"?>
<!-- Generator: Adobe Illustrator 21.0.0, SVG Export Plug-In . SVG Version: 6.00 Build 0)  -->
<svg version="1.1" id="Layer_1" xmlns="http://www.w3.org/2000/svg" xmlns:xlink="http://www.w3.org/1999/xlink" x="0px" y="0px"
	 viewBox="0 0 1073.6 319.2" style="enable-background:new 0 0 1073.6 319.2;" xml:space="preserve">
<style type="text/css">
	.st0{fill:#99550A;}
	.st1{display:none;fill:#99550A;}
	.st2{fill:#683B04;}
	.st3{display:none;fill:none;stroke:#99550A;stroke-width:10;stroke-linecap:round;stroke-miterlimit:10;}
</style>
<g>
	<path class="st0" d="M205.6,72.1L202,77v32.6l24.7-33l3.3-4.5H205.6z M248,105.1l-39.4,53.2l39.1,52.6l3.8,5.1l35.6,47.9V52.4
		L248,105.1z M286,43.6h-84v22.1l0,0h41.1l-12.3,16.5L202,120.8v28.6l2.8,3.8l39.4-53.2L286,43.6z M244.5,217.4l-0.9-1.2l-39-52.6
		l-2.6-3.5V197l41.1,55.1H202l0,0v21.5h84.3L244.5,217.4z M202,208.3V241l3.6,4.9H230L202,208.3z"/>
	<polygon class="st0" points="459,43.6 459,43.6 453.7,50.7 453.4,51.1 374,157.3 374,51.7 380,43.6 	"/>
	<polygon class="st0" points="376,163.6 459,52.6 459,273.6 376,273.6 	"/>
	<rect x="380" y="43.6" class="st1" width="79" height="230"/>
	<polygon class="st0" points="223.3,72.1 230,72.1 226.7,76.6 	"/>
	<polygon class="st0" points="286,43.6 244.2,100 230.8,82.2 243.1,65.7 218.5,65.7 202.1,43.7 202,43.6 	"/>
	<polygon class="st0" points="334,106.6 291.1,162.7 287,157.3 248,105.1 287,52.4 290.3,48 	"/>
	<polygon class="st0" points="373,158.6 330.5,215.4 330.3,215.1 291.1,162.7 333.6,105.9 372.8,158.4 	"/>
	<polygon class="st0" points="459,43.6 453.7,50.7 453.4,51.1 374,157.3 373,158.6 330.5,215.4 330.3,215.1 291.1,162.7 
		333.6,105.9 374,51.7 380,43.6 	"/>
</g>
<g>
	<path class="st2" d="M153,186.5l-13.6,18.3l-0.1,0.1l13.6,18.3l13.7-18.4L153,186.5z M132.5,158.9l-13.6-18.3l-0.1-0.1l-4.1-5.5
		L62.9,65.7H104l31.2,41.8l13.7-18.4L115,43.7H19l81.9,109.8l4.2,5.6l17.8,23.9l12.2,16.3l13.7-18.4l-12.2-16.3L132.5,158.9z
		 M153.1,94.7l-13.7,18.4l13.6,18.3l13.6-18.3l0.1-0.1L153.1,94.7z M205.1,164.4l-4.2-5.6l-17.8-23.9l-12.2-16.3L157.2,137
		l12.2,16.3l4.2,5.6l13.6,18.3l0.1,0.1l4.1,5.5l51.8,69.4H202l-31.2-41.8l-13.7,18.4l33.9,45.4h96L205.1,164.4z"/>
	<g>
		<polygon class="st2" points="148.8,137 136.6,153.3 122.9,134.9 76,72.1 100.4,72.1 135.1,118.6 		"/>
	</g>
	<g>
		<polygon class="st2" points="165.2,158.9 153,175.3 140.8,158.9 153,142.6 		"/>
	</g>
	<g>
		<polygon class="st2" points="230,245.8 205.6,245.8 170.9,199.3 157.2,180.9 169.4,164.5 183.1,182.9 		"/>
	</g>
	<g>
		<polygon class="st2" points="230,72.1 183.1,134.9 169.4,153.3 165.2,158.9 153,175.3 148.8,180.9 135.1,199.3 100.4,245.8 
			76,245.8 122.9,182.9 136.6,164.5 140.8,158.9 153,142.6 157.2,137 170.9,118.6 205.6,72.1 		"/>
	</g>
	<path class="st2" d="M118.8,140.7L118.8,140.7l-13.7,18.2l13.7,18.4l13.6-18.3L118.8,140.7z M191,43.7l-33.9,45.4l-4.2,5.6
		l-17.8,23.9l-12.2,16.3l13.7,18.4l12.2-16.3l4.2-5.6l13.6-18.3l0.1-0.1l4.1-5.5L202,65.7h41.1l-51.8,69.4l13.7,18.4l82-109.8H191z
		 M187.2,140.7L173.6,159l13.6,18.3l0.1,0.1l13.6-18.3L187.2,140.7z M157.2,180.9l-4.2,5.6l-13.6,18.3l-0.1,0.1l-4.1,5.5L104,252.2
		H62.9l51.8-69.4L101,164.4L19,274.2h96l33.9-45.4l4.2-5.6l17.8-23.9l12.2-16.3l-13.7-18.4L157.2,180.9z"/>
</g>
<path class="st0" d="M493.1,221c0-7.5,1.2-14.5,3.5-21c2.3-6.5,5.6-12.1,10-16.9c4.3-4.8,9.6-8.5,15.8-11.2s13.1-4.1,20.9-4.1
	c9.5,0,18.6,1.7,27.1,5.2l-5,19.1c-2.7-1.2-5.8-2.1-9.2-2.9c-3.4-0.8-7.1-1.2-10.9-1.2c-9.2,0-16.1,2.9-20.9,8.6
	c-4.8,5.7-7.2,13.8-7.2,24.3c0,10.1,2.3,18,6.8,23.9c4.5,5.9,12.1,8.8,22.8,8.8c4,0,7.9-0.4,11.8-1.2c3.9-0.8,7.2-1.7,10.1-2.9
	l3.3,19.3c-2.6,1.3-6.5,2.4-11.7,3.5c-5.2,1-10.6,1.5-16.1,1.5c-8.6,0-16.1-1.3-22.5-4c-6.4-2.6-11.7-6.3-15.8-11
	c-4.2-4.7-7.3-10.3-9.4-16.8C494.1,235.6,493.1,228.6,493.1,221z"/>
<path class="st0" d="M647.5,191.4c-1.9-0.6-4.6-1.3-8-2c-3.4-0.7-7.4-1.1-11.9-1.1c-2.6,0-5.3,0.3-8.2,0.8c-2.9,0.5-4.9,1-6.1,1.4
	v81h-23.4v-96.3c4.5-1.7,10.1-3.3,16.9-4.7c6.8-1.5,14.3-2.2,22.5-2.2c1.5,0,3.3,0.1,5.4,0.3c2.1,0.2,4.1,0.5,6.2,0.8
	c2.1,0.3,4.1,0.7,6,1.2c1.9,0.5,3.5,0.9,4.6,1.3L647.5,191.4z"/>
<path class="st0" d="M753.8,170.3c-10.4,38.4-22.5,73.2-36.3,104.4c-2.6,5.8-5.2,10.8-7.9,14.9c-2.7,4.1-5.7,7.5-9.1,10.2
	c-3.4,2.7-7.1,4.7-11.2,5.9c-4.1,1.2-8.9,1.8-14.3,1.8c-3.6,0-7.2-0.4-10.7-1.2c-3.5-0.8-6.2-1.6-8-2.5l4.3-18.8
	c4.7,1.8,9.3,2.7,13.8,2.7c6.1,0,10.8-1.4,14.3-4.3s6.4-7.4,9-13.4c-7.4-14.2-14.5-29.6-21.3-46.4c-6.8-16.8-12.8-34.5-18.1-53.3
	h24.9c1.3,5.4,2.9,11.3,4.8,17.6c1.9,6.3,3.9,12.7,6.1,19.2c2.2,6.5,4.5,13,7,19.4c2.5,6.4,4.9,12.4,7.4,18
	c4.1-11.5,8-23.7,11.5-36.6c3.6-13,6.9-25.5,9.8-37.6H753.8z"/>
<path class="st0" d="M862.7,221c0,7.7-1,14.8-3,21.3c-2,6.4-4.9,12-8.6,16.6c-3.7,4.6-8.4,8.2-14,10.8c-5.6,2.6-12,3.9-19,3.9
	c-4.8,0-9.2-0.6-13.1-1.7c-4-1.2-7.3-2.4-9.9-3.9v39.2h-23.4V173.6c4.8-1.3,10.6-2.5,17.6-3.7c7-1.2,14.3-1.7,22-1.7
	c8,0,15.1,1.2,21.5,3.7c6.3,2.4,11.7,6,16.1,10.5c4.4,4.6,7.9,10.1,10.2,16.6C861.5,205.6,862.7,212.9,862.7,221z M838.7,221.4
	c0-10.4-2.4-18.6-7.1-24.4c-4.7-5.8-12.3-8.7-22.7-8.7c-2.2,0-4.5,0.1-6.9,0.3c-2.4,0.2-4.7,0.6-7.1,1.3v57.8c2.1,1.4,4.8,2.7,8.2,4
	c3.4,1.2,7.1,1.8,10.9,1.8c8.5,0,14.7-2.9,18.7-8.7C836.7,239,838.7,231.2,838.7,221.4z"/>
<path class="st0" d="M885.7,143.7l23.4-3.9v30.5h36v19.5h-36V231c0,8.1,1.3,13.9,3.9,17.4c2.6,3.5,7,5.2,13.1,5.2
	c4.3,0,8-0.5,11.3-1.4c3.3-0.9,5.9-1.7,7.8-2.5l3.9,18.6c-2.7,1.2-6.3,2.4-10.6,3.6c-4.4,1.2-9.5,1.8-15.5,1.8
	c-7.2,0-13.2-1-18.1-2.9c-4.8-1.9-8.7-4.7-11.5-8.4c-2.8-3.7-4.8-8.1-6-13.3c-1.2-5.2-1.7-11.2-1.7-17.9V143.7z"/>
<line class="st3" x1="1071.2" y1="138.8" x2="943.8" y2="306.6"/>
<g>
	<path class="st0" d="M973.2,259.5C973.2,259.5,973.3,259.5,973.2,259.5l14.4-18.8c-2.6-5.3-3.9-12-3.9-19.9c0-10.1,2.2-18,6.5-23.9
		c4.3-5.9,10.3-8.8,18.1-8.8c6.1,0,11.1,1.8,15.1,5.5l13.1-17.3c-2.6-1.9-5.5-3.4-8.6-4.7c-6-2.5-12.5-3.8-19.6-3.8
		c-7.1,0-13.6,1.3-19.5,3.8c-5.9,2.5-11.1,6.1-15.4,10.7c-4.3,4.6-7.7,10.2-10.1,16.7c-2.4,6.5-3.6,13.8-3.6,21.7
		c0,8,1.2,15.3,3.6,21.8C965.6,249.2,969,254.8,973.2,259.5z"/>
	<path class="st2" d="M1043.8,183.1l-14.5,19.1c2.3,5.1,3.4,11.3,3.4,18.6c0,10.2-2.2,18.2-6.5,24.2c-4.3,5.9-10.3,8.9-18.1,8.9
		c-5.7,0-10.5-1.6-14.4-4.9l-13,17.1c2.4,1.6,4.9,3,7.6,4.2c5.9,2.6,12.5,3.9,19.7,3.9c7.2,0,13.8-1.3,19.8-3.9s11.1-6.2,15.4-10.8
		c4.3-4.6,7.5-10.2,9.9-16.8c2.3-6.6,3.5-13.9,3.5-21.8c0-8-1.2-15.2-3.6-21.7C1050.9,192.9,1047.8,187.6,1043.8,183.1z"/>
</g>
</svg>
